<svg data-v-423bf9ae="" xmlns="http://www.w3.org/2000/svg" viewBox="0 0 293.6427895869156 60" class="font"><!----><!----><!----><g data-v-423bf9ae="" id="feee657f-adf4-4af9-887a-446120c5812a" fill="white" transform="matrix(6.054490506946714,0,0,6.054490506946714,-5.5095890754245715,-10.171544694269905)"><path d="M0.91 4.48L0.91 11.48L1.96 11.48L1.96 7.45C1.96 6.19 2.91 5.32 4.07 5.32C5.22 5.32 6.03 6.16 6.03 7.43L6.03 11.48L7.08 11.48L7.08 7.41C7.08 5.42 5.73 4.37 4.28 4.37C3.15 4.37 2.46 4.90 1.96 5.57L1.96 4.48ZM11.96 10.64C10.54 10.64 9.63 9.65 9.48 8.40L15.34 8.40L15.34 7.98C15.34 5.98 14.01 4.37 11.87 4.37C9.73 4.37 8.40 5.98 8.40 7.98C8.40 9.98 9.80 11.59 11.94 11.59C13.61 11.59 14.64 10.72 15.13 9.46L13.99 9.46C13.61 10.16 12.94 10.64 11.96 10.64ZM11.87 5.32C13.22 5.32 14.06 6.23 14.25 7.42L9.49 7.42C9.69 6.23 10.53 5.32 11.87 5.32ZM22.53 4.48L21.06 4.48L17.68 7.95L17.68 1.68L16.63 1.68L16.63 11.48L17.68 11.48L17.68 9.27L19.00 7.97L21.45 11.48L22.74 11.48L19.71 7.24ZM29.55 4.48L28.08 4.48L24.71 7.95L24.71 1.68L23.66 1.68L23.66 11.48L24.71 11.48L24.71 9.27L26.03 7.97L28.48 11.48L29.76 11.48L26.74 7.24ZM34.31 4.37C32.58 4.37 31.88 5.73 31.74 6.20L31.74 4.48L30.69 4.48L30.69 11.48L31.74 11.48L31.74 8.40C31.74 6.86 32.69 5.42 34.26 5.42L34.38 5.42L34.38 4.37ZM38.37 4.37C36.23 4.37 34.90 5.98 34.90 7.98C34.90 9.98 36.23 11.59 38.37 11.59C40.52 11.59 41.85 9.98 41.85 7.98C41.85 5.98 40.52 4.37 38.37 4.37ZM38.37 10.64C36.82 10.64 35.95 9.42 35.95 7.98C35.95 6.54 36.82 5.32 38.37 5.32C39.93 5.32 40.80 6.54 40.80 7.98C40.80 9.42 39.93 10.64 38.37 10.64ZM43.23 4.48L43.23 11.48L44.28 11.48L44.28 7.45C44.28 6.19 45.23 5.32 46.40 5.32C47.54 5.32 48.36 6.16 48.36 7.43L48.36 11.48L49.41 11.48L49.41 7.41C49.41 5.42 48.05 4.37 46.61 4.37C45.47 4.37 44.79 4.90 44.28 5.57L44.28 4.48Z"></path></g><!----><!----></svg>