<svg data-v-423bf9ae="" xmlns="http://www.w3.org/2000/svg" viewBox="0 0 330 90" class="iconLeft"><!----><!----><!----><g data-v-423bf9ae="" id="26fb56a0-411a-47e3-a595-0236ce8f2a0d" fill="black" transform="matrix(5.434782627474683,0,0,5.434782627474683,59.56670649018241,3.15217279403857)"><path d="M1.20 13.05L1.20 6.06Q1.61 5.95 2.30 5.81Q2.98 5.67 3.98 5.67L3.98 5.67Q4.80 5.67 5.36 5.91Q5.91 6.15 6.24 6.59Q6.57 7.03 6.71 7.64Q6.85 8.26 6.85 9.00L6.85 9.00L6.85 13.05L5.94 13.05L5.94 9.30Q5.94 8.53 5.83 7.99Q5.73 7.46 5.48 7.13Q5.24 6.79 4.84 6.64Q4.44 6.50 3.84 6.50L3.84 6.50Q3.19 6.50 2.72 6.57Q2.25 6.64 2.11 6.69L2.11 6.69L2.11 13.05L1.20 13.05ZM8.74 9.42L8.74 9.42Q8.74 8.47 9.01 7.76Q9.28 7.06 9.72 6.58Q10.16 6.10 10.73 5.87Q11.30 5.64 11.90 5.64L11.90 5.64Q13.23 5.64 14.02 6.51Q14.81 7.38 14.81 9.18L14.81 9.18Q14.81 9.30 14.80 9.41Q14.80 9.52 14.78 9.62L14.78 9.62L9.70 9.62Q9.74 10.95 10.36 11.66Q10.98 12.38 12.32 12.38L12.32 12.38Q13.06 12.38 13.50 12.24Q13.93 12.10 14.13 12.00L14.13 12.00L14.29 12.78Q14.10 12.89 13.56 13.05Q13.02 13.20 12.29 13.20L12.29 13.20Q11.34 13.20 10.67 12.92Q10.00 12.64 9.56 12.14Q9.13 11.63 8.93 10.94Q8.74 10.25 8.74 9.42ZM9.73 8.85L13.87 8.85Q13.85 7.71 13.34 7.08Q12.84 6.45 11.91 6.45L11.91 6.45Q11.42 6.45 11.04 6.65Q10.65 6.85 10.37 7.17Q10.08 7.50 9.92 7.94Q9.76 8.37 9.73 8.85L9.73 8.85ZM18.77 9.11L18.77 9.11Q19.21 9.41 19.71 9.87Q20.20 10.33 20.69 10.87Q21.17 11.41 21.60 11.98Q22.02 12.54 22.32 13.05L22.32 13.05L21.24 13.05Q20.90 12.49 20.48 11.95Q20.05 11.41 19.58 10.93Q19.11 10.46 18.64 10.07Q18.17 9.67 17.75 9.41L17.75 9.41L17.75 13.05L16.84 13.05L16.84 2.35L17.75 2.18L17.75 9.07Q18.10 8.74 18.54 8.30Q18.97 7.87 19.41 7.42Q19.85 6.97 20.24 6.55Q20.64 6.13 20.92 5.81L20.92 5.81L22.01 5.81Q21.69 6.15 21.28 6.57Q20.87 6.99 20.43 7.44Q19.99 7.90 19.56 8.33Q19.12 8.76 18.77 9.11ZM25.70 9.11L25.70 9.11Q26.14 9.41 26.64 9.87Q27.13 10.33 27.62 10.87Q28.10 11.41 28.53 11.98Q28.95 12.54 29.25 13.05L29.25 13.05L28.17 13.05Q27.83 12.49 27.41 11.95Q26.98 11.41 26.51 10.93Q26.04 10.46 25.57 10.07Q25.10 9.67 24.68 9.41L24.68 9.41L24.68 13.05L23.77 13.05L23.77 2.35L24.68 2.18L24.68 9.07Q25.03 8.74 25.47 8.30Q25.90 7.87 26.34 7.42Q26.78 6.97 27.17 6.55Q27.57 6.13 27.85 5.81L27.85 5.81L28.94 5.81Q28.62 6.15 28.21 6.57Q27.80 6.99 27.36 7.44Q26.92 7.90 26.49 8.33Q26.05 8.76 25.70 9.11ZM33.17 5.67L33.17 5.67Q33.61 5.67 34.01 5.74Q34.41 5.81 34.57 5.88L34.57 5.88L34.38 6.66Q34.27 6.61 33.93 6.54Q33.59 6.48 33.03 6.48L33.03 6.48Q32.44 6.48 32.08 6.57Q31.72 6.65 31.61 6.71L31.61 6.71L31.61 13.05L30.70 13.05L30.70 6.15Q31.05 5.99 31.67 5.83Q32.28 5.67 33.17 5.67ZM42.11 9.44L42.11 9.44Q42.11 10.29 41.87 10.99Q41.62 11.69 41.18 12.18Q40.74 12.67 40.14 12.94Q39.54 13.22 38.81 13.22L38.81 13.22Q38.08 13.22 37.48 12.94Q36.88 12.67 36.44 12.18Q35.99 11.69 35.75 10.99Q35.50 10.29 35.50 9.44L35.50 9.44Q35.50 8.58 35.75 7.88Q35.99 7.18 36.44 6.68Q36.88 6.19 37.48 5.92Q38.08 5.64 38.81 5.64L38.81 5.64Q39.54 5.64 40.14 5.92Q40.74 6.19 41.18 6.68Q41.62 7.18 41.87 7.88Q42.11 8.58 42.11 9.44ZM41.15 9.44L41.15 9.44Q41.15 8.08 40.52 7.27Q39.89 6.47 38.81 6.47L38.81 6.47Q37.73 6.47 37.10 7.27Q36.47 8.08 36.47 9.44L36.47 9.44Q36.47 10.79 37.10 11.59Q37.73 12.39 38.81 12.39L38.81 12.39Q39.89 12.39 40.52 11.59Q41.15 10.79 41.15 9.44ZM44.09 13.05L44.09 6.06Q44.49 5.95 45.18 5.81Q45.86 5.67 46.86 5.67L46.86 5.67Q47.68 5.67 48.24 5.91Q48.79 6.15 49.12 6.59Q49.45 7.03 49.59 7.64Q49.73 8.26 49.73 9.00L49.73 9.00L49.73 13.05L48.82 13.05L48.82 9.30Q48.82 8.53 48.71 7.99Q48.61 7.46 48.36 7.13Q48.12 6.79 47.72 6.64Q47.32 6.50 46.72 6.50L46.72 6.50Q46.07 6.50 45.61 6.57Q45.14 6.64 45.00 6.69L45.00 6.69L45.00 13.05L44.09 13.05Z"></path></g><!----><g data-v-423bf9ae="" id="c572e3ba-2965-49ae-a567-3624292d701b" transform="matrix(2.8125,0,0,2.8125,-21.194407999515533,0)" stroke="none" fill="black"><path d="M18.396 26.495L7.807 15.905 18.432 5.28l.707.707-9.918 9.918 9.882 9.883z"></path><path d="M23.194 1v4.194H19V1h4.194m1-1H18v6.194h6.194V0zM23.194 26.806V31H19v-4.194h4.194m1-1H18V32h6.194v-6.194z"></path></g><!----></svg>